Coordinates
version=1
nRows=29
nColumns=38
inDegrees=no

Units are S.I. units (second, meters, Newtons, ...)
If the header above contains a line with 'inDegrees', this indicates whether rotational values are in degrees (yes) or radians (no).

endheader
time	pelvis_tilt	pelvis_list	pelvis_rotation	pelvis_tx	pelvis_ty	pelvis_tz	hip_flexion_r	hip_adduction_r	hip_rotation_r	knee_angle_r	ankle_angle_r	subtalar_angle_r	mtp_angle_r	hip_flexion_l	hip_adduction_l	hip_rotation_l	knee_angle_l	ankle_angle_l	subtalar_angle_l	mtp_angle_l	lumbar_extension	lumbar_bending	lumbar_rotation	arm_flex_r	arm_add_r	arm_rot_r	elbow_flex_r	pro_sup_r	wrist_flex_r	wrist_dev_r	arm_flex_l	arm_add_l	arm_rot_l	elbow_flex_l	pro_sup_l	wrist_flex_l	wrist_dev_l
4.05	0.0782254	0.0587759	0.0762218	0.787538	0.95413	-0.380102	0.110541	-0.174723	-0.159879	-2.37408	0.144159	0.0999988	-0.0422679	0.325047	0.0583623	-0.101904	-0.94131	0.476001	0.0999999	-0.036774	-0.40168	-0.1166	-0.0897163	-0.29904	-0.414607	0.115135	1.62642	1.35692	0.0656517	0.0997237	-0.100551	-0.706598	-0.376681	2.20902	1.58903	0.0205341	-0.0811922
4.05833	0.0736079	0.0566537	0.0792218	0.785933	0.955134	-0.380979	0.196661	-0.17822	-0.150756	-2.40393	0.176203	0.0999988	-0.0422679	0.269728	0.0533828	-0.100422	-0.921687	0.514135	0.0999999	-0.036774	-0.400192	-0.110771	-0.120346	-0.31864	-0.414592	0.104048	1.58799	1.33653	0.0656517	0.0997237	-0.0537163	-0.693239	-0.359585	2.19896	1.60444	0.0205341	-0.0811922
4.06667	0.0677973	0.050489	0.0820191	0.784952	0.956812	-0.381886	0.28314	-0.175958	-0.143449	-2.41471	0.205611	0.0999988	-0.0422679	0.209607	0.0434373	-0.100946	-0.888293	0.541337	0.0999999	-0.036774	-0.395095	-0.100086	-0.149388	-0.341508	-0.41759	0.0914326	1.56063	1.31199	0.0656517	0.0997237	-0.0133321	-0.677693	-0.342709	2.1901	1.61548	0.0205341	-0.0811922
4.075	0.060765	0.040411	0.0848373	0.784668	0.959079	-0.382851	0.368016	-0.168475	-0.139191	-2.40642	0.231172	0.0999988	-0.0422679	0.146425	0.0287431	-0.103911	-0.843723	0.555147	0.0999999	-0.036774	-0.386317	-0.0846959	-0.176862	-0.367954	-0.423775	0.0768438	1.54448	1.28513	0.0656517	0.0997237	0.0196732	-0.660544	-0.326207	2.18333	1.62198	0.0205341	-0.0811922
4.08333	0.0524899	0.026992	0.087756	0.785083	0.961855	-0.383864	0.449519	-0.156785	-0.138605	-2.3797	0.252176	0.0999988	-0.0422679	0.0819753	0.010011	-0.109985	-0.790855	0.553533	0.0999999	-0.036774	-0.374017	-0.0653017	-0.202809	-0.39792	-0.433008	0.0599759	1.53864	1.2583	0.0656517	0.0997237	0.0449447	-0.642568	-0.309815	2.17926	1.62409	0.0205341	-0.0811922
4.09167	0.0430305	0.0111843	0.0906574	0.786145	0.965058	-0.384884	0.526111	-0.142186	-0.141635	-2.33566	0.268514	0.0999988	-0.0422679	0.0179555	-0.0116549	-0.120034	-0.73273	0.534939	0.0999999	-0.036774	-0.358627	-0.0430875	-0.22721	-0.431009	-0.444846	0.04072	1.54143	1.2338	0.0656517	0.0997237	0.0627091	-0.624689	-0.292915	2.17817	1.62231	0.0205341	-0.0811922
4.1	0.0325597	-0.00579789	0.0932297	0.787754	0.968601	-0.385855	0.59648	-0.126033	-0.147614	-2.27565	0.280635	0.0999988	-0.0422679	-0.0441238	-0.0348857	-0.134896	-0.672498	0.498417	0.0999999	-0.036774	-0.340837	-0.0195697	-0.24993	-0.466554	-0.458607	0.0191714	1.55069	1.21348	0.0656517	0.0997237	0.0737014	-0.607902	-0.274681	2.18002	1.61742	0.0205341	-0.0811922
4.10833	0.0213556	-0.0226492	0.0950293	0.789774	0.972387	-0.386709	0.659528	-0.109514	-0.155468	-2.20112	0.289418	0.0999988	-0.0422679	-0.102962	-0.0582004	-0.15504	-0.613397	0.443848	0.0999999	-0.036774	-0.321537	0.00361575	-0.270723	-0.503706	-0.473453	-0.00439825	1.56409	1.19846	0.0656517	0.0997237	0.0790141	-0.593155	-0.254298	2.18454	1.61035	0.0205341	-0.0811922
4.11667	0.00975703	-0.03815	0.0955795	0.792046	0.976313	-0.387381	0.714351	-0.0935057	-0.163984	-2.11336	0.296055	0.0999988	-0.0422679	-0.157459	-0.0801715	-0.180239	-0.558687	0.372174	0.0999999	-0.036774	-0.301709	0.0249392	-0.289285	-0.541522	-0.488512	-0.0295807	1.5795	1.18894	0.0656517	0.0997237	0.0798947	-0.581242	-0.23118	2.19133	1.60216	0.0205341	-0.0811922
4.125	-0.00190163	-0.0513052	0.0944754	0.794408	0.980265	-0.387823	0.760239	-0.0785305	-0.172069	-2.0135	0.301901	0.0999988	-0.0422679	-0.206682	-0.0995302	-0.209238	-0.511537	0.285664	0.0999999	-0.036774	-0.282296	0.0431632	-0.305345	-0.579043	-0.502987	-0.0558798	1.59517	1.18427	0.0656517	0.0997237	0.0775326	-0.572692	-0.205136	2.19994	1.59398	0.0205341	-0.0811922
4.13333	-0.0133478	-0.0614202	0.0914703	0.796724	0.984121	-0.388023	0.796676	-0.0647919	-0.178935	-1.9024	0.308291	0.0999988	-0.0422679	-0.249843	-0.115236	-0.239659	-0.474869	0.188064	0.0999999	-0.036774	-0.264085	0.0574479	-0.318751	-0.615357	-0.516241	-0.0827624	1.60981	1.18315	0.0656517	0.0997237	0.0728805	-0.567707	-0.17644	2.21	1.5869	0.0205341	-0.0811922
4.14167	-0.0243934	-0.0681095	0.0865285	0.798881	0.987756	-0.388004	0.823348	-0.0522763	-0.184187	-1.78087	0.31634	0.0999988	-0.0422679	-0.286297	-0.126525	-0.26826	-0.451208	0.0845132	0.0999999	-0.036774	-0.247644	0.067377	-0.329532	-0.649656	-0.527842	-0.109714	1.62268	1.18393	0.0656517	0.0997237	0.0665438	-0.566145	-0.145793	2.22117	1.58192	0.0205341	-0.0811922
4.15	-0.0349089	-0.0712614	0.0798487	0.800789	0.991058	-0.38782	0.840142	-0.0408953	-0.187853	-1.6498	0.326809	0.0999988	-0.0422679	-0.315589	-0.132936	-0.29147	-0.442541	-0.0188429	0.0999999	-0.036774	-0.233334	0.0729163	-0.337922	-0.681273	-0.537568	-0.136294	1.63348	1.18498	0.0656517	0.0997237	0.0587532	-0.567544	-0.114202	2.2332	1.57974	0.0205341	-0.0811922
4.15833	-0.0447556	-0.0709873	0.0718484	0.802397	0.993933	-0.387539	0.847165	-0.0306	-0.190337	-1.51045	0.340001	0.0999988	-0.0422679	-0.337517	-0.134326	-0.306052	-0.450203	-0.115569	0.0999999	-0.036774	-0.221372	0.0743424	-0.344337	-0.709714	-0.545368	-0.16218	1.64224	1.18502	0.0656517	0.0997237	0.0494124	-0.571193	-0.0828081	2.24584	1.58071	0.0205341	-0.0811922
4.16667	-0.0537195	-0.0675682	0.0631087	0.803703	0.996309	-0.387234	0.844779	-0.0214367	-0.192325	-1.36471	0.355712	0.0999988	-0.0422679	-0.352201	-0.130878	-0.309775	-0.474777	-0.199884	0.0999999	-0.036774	-0.211904	0.0721684	-0.349306	-0.734663	-0.551317	-0.187193	1.64927	1.18334	0.0656517	0.0997237	0.0382022	-0.576221	-0.0527151	2.25882	1.58473	0.0205341	-0.0811922
4.175	-0.0614906	-0.0614165	0.0542793	0.804745	0.998129	-0.386968	0.833666	-0.0135371	-0.194642	-1.21531	0.373258	0.0999988	-0.0422679	-0.360119	-0.123117	-0.301935	-0.516058	-0.26758	0.0999999	-0.036774	-0.20505	0.0670722	-0.353365	-0.755981	-0.55557	-0.211286	1.65503	1.17991	0.0656517	0.0997237	0.0247096	-0.581703	-0.0248495	2.27178	1.59125	0.0205341	-0.0811922
4.18333	-0.067698	-0.0530481	0.0459631	0.805584	0.999339	-0.386786	0.81491	-0.00707636	-0.198097	-1.06586	0.391606	0.0999988	-0.0422679	-0.362074	-0.111881	-0.283558	-0.573109	-0.316585	0.0999999	-0.036774	-0.200917	0.0598251	-0.356942	-0.773678	-0.558327	-0.234509	1.66	1.17534	0.0656517	0.0997237	0.00855416	-0.586753	0.000126024	2.28429	1.59936	0.0205341	-0.0811922
4.19167	-0.0719827	-0.0430561	0.0386077	0.806285	0.999888	-0.386708	0.790018	-0.00220888	-0.20332	-0.920839	0.409472	0.0999988	-0.0422679	-0.359098	-0.0982666	-0.257216	-0.644385	-0.347045	0.0999999	-0.036774	-0.199559	0.0512257	-0.360261	-0.787867	-0.559819	-0.256932	1.66468	1.17061	0.0656517	0.0997237	-0.0105131	-0.590599	0.0218328	2.29579	1.60787	0.0205341	-0.0811922
4.2	-0.0740726	-0.0320803	0.0324372	0.806895	0.999751	-0.386739	0.760862	0.000982853	-0.21062	-0.785229	0.425339	0.0999988	-0.0422679	-0.352316	-0.0835302	-0.2265	-0.727921	-0.360904	0.0999999	-0.036774	-0.200954	0.0420455	-0.363301	-0.798695	-0.560311	-0.278566	1.66947	1.16686	0.0656517	0.0997237	-0.0325503	-0.592626	0.0401384	2.30568	1.61556	0.0205341	-0.0811922
4.20833	-0.0738246	-0.0207749	0.0274409	0.807441	0.998923	-0.386868	0.7295	0.00254717	-0.219837	-0.664082	0.437346	0.0999988	-0.0422679	-0.342813	-0.0689658	-0.195333	-0.821534	-0.361145	0.0999999	-0.036774	-0.204996	0.0329897	-0.365816	-0.806265	-0.560102	-0.299299	1.67463	1.16507	0.0656517	0.0997237	-0.0574073	-0.592395	0.0550811	2.31333	1.62129	0.0205341	-0.0811922
4.21667	-0.071225	-0.00977657	0.0234168	0.807923	0.997424	-0.387079	0.697917	0.00270604	-0.230243	-0.56195	0.443243	0.0999988	-0.0422679	-0.331534	-0.0557793	-0.167288	-0.923004	-0.351008	0.0999999	-0.036774	-0.211524	0.024675	-0.3674	-0.810561	-0.559519	-0.318861	1.68029	1.16584	0.0656517	0.0997237	-0.0847433	-0.589628	0.0667857	2.31809	1.62423	0.0205341	-0.0811922
4.225	-0.0663651	0.000325266	0.0200462	0.808325	0.995294	-0.387351	0.667773	0.00184437	-0.240613	-0.48241	0.440664	0.0999988	-0.0422679	-0.31922	-0.0449741	-0.145041	-1.03022	-0.33337	0.0999999	-0.036774	-0.220365	0.0176161	-0.367576	-0.811405	-0.558894	-0.336848	1.68642	1.16926	0.0656517	0.0997237	-0.114066	-0.584185	0.0753935	2.31937	1.62397	0.0205341	-0.0811922
4.23333	-0.0594097	0.00902408	0.0169684	0.808614	0.992579	-0.387657	0.640221	0.000443177	-0.249532	-0.427763	0.427805	0.0999988	-0.0422679	-0.306356	-0.0372783	-0.130094	-1.14125	-0.31043	0.0999999	-0.036774	-0.231368	0.0122228	-0.365876	-0.80844	-0.558525	-0.352763	1.69285	1.17495	0.0656517	0.0997237	-0.144777	-0.576034	0.081025	2.31653	1.62066	0.0205341	-0.0811922
4.24167	-0.050582	0.0159107	0.0138375	0.80875	0.989337	-0.38797	0.615857	-0.000961478	-0.255604	-0.398912	0.404277	0.0999988	-0.0422679	-0.293124	-0.0331194	-0.122765	-1.25444	-0.283719	0.0999999	-0.036774	-0.244398	0.00879244	-0.361879	-0.801168	-0.558627	-0.366104	1.69931	1.18218	0.0656517	0.0997237	-0.176218	-0.565219	0.0837776	2.30899	1.61495	0.0205341	-0.0811922
4.25	-0.0401841	0.0206821	0.0103412	0.808692	0.98562	-0.388264	0.594779	-0.00181386	-0.257648	-0.395381	0.371875	0.0999988	-0.0422679	-0.279352	-0.0326563	-0.122401	-1.36838	-0.254297	0.0999999	-0.036774	-0.259295	0.00750787	-0.355215	-0.789015	-0.559287	-0.376427	1.70551	1.19003	0.0656517	0.0997237	-0.207699	-0.551834	0.0837581	2.2961	1.60791	0.0205341	-0.0811922
4.25833	-0.0286327	0.0231424	0.00620311	0.808394	0.981487	-0.388514	0.576713	-0.00158181	-0.25492	-0.415397	0.334921	0.0999988	-0.0422679	-0.264471	-0.0358348	-0.127676	-1.48192	-0.222931	0.0999999	-0.036774	-0.275804	0.00844472	-0.345543	-0.77143	-0.560431	-0.383421	1.71118	1.19763	0.0656517	0.0997237	-0.238524	-0.536018	0.0811404	2.27726	1.60075	0.0205341	-0.0811922
4.26667	-0.0164882	0.0231919	0.00117925	0.807812	0.97703	-0.388699	0.561109	0.000209757	-0.247301	-0.455932	0.299797	0.0999988	-0.0422679	-0.24751	-0.0424743	-0.136928	-1.59407	-0.190216	0.0999999	-0.036774	-0.293499	0.0115839	-0.332524	-0.747988	-0.561805	-0.386936	1.71619	1.20434	0.0656517	0.0997237	-0.268012	-0.51795	0.0762238	2.25191	1.59455	0.0205341	-0.0811922
4.275	-0.00445071	0.020821	-0.00493304	0.806906	0.972423	-0.388804	0.54717	0.00394709	-0.235362	-0.512693	0.273607	0.0999988	-0.0422679	-0.227157	-0.0523209	-0.148415	-1.70393	-0.156585	0.0999999	-0.036774	-0.311732	0.0168172	-0.315834	-0.718491	-0.562991	-0.386991	1.72052	1.20987	0.0656517	0.0997237	-0.295544	-0.497879	0.0694667	2.2197	1.58993	0.0205341	-0.0811922
4.28333	0.00670825	0.0161201	-0.01227	0.805673	0.967926	-0.388812	0.533819	0.00989973	-0.220185	-0.580172	0.262351	0.0999988	-0.0422679	-0.201905	-0.0650407	-0.160473	-1.81053	-0.122285	0.0999999	-0.036774	-0.32963	0.0239299	-0.295201	-0.683057	-0.56345	-0.383744	1.72438	1.21426	0.0656517	0.0997237	-0.320645	-0.476152	0.0614635	2.18062	1.58692	0.0205341	-0.0811922
